PathFileType	4	(X/Y/Z)	C:\Users\Basilio\Documents\Thesis Gigler\squatting_fais\c3dfiles\075\SJ_pre4\markers_experimental.trc
DataRate	CameraRate	NumFrames	NumMarkers	Units	OrigDataRate	OrigDataStartFrame	OrigNumFrames
200.000000	200.000000	4	61	mm	200.000000	812	1624
Frame#	Time	FHD			LBHD			RBHD			C7			T10			CLAV			LSHO			LUUPA			LMUPA			LDUPA			LLEP			LMEP			LRAD			LUL			LRFIN			RSHO			RUPA1			RMUPA			RDUPA			RLEP			RMEP			RRAD			RUL			RUFIN			LASI			RASI			USACR			LSACR			RSACR			LTHI1			LTHI2			LTHI3			LTHI4			LLFC			LMFC			LTIB1			LTIB2			LTIB3			LTIB4			LLMAL			LMMAL			LHEE			LMT1			LMT2			LMT5			RTHI			RTHI2			RTHI3			RTHI4			RLFC			RMFC			RTIB1			RTIB2			RTIB3			RTIB4			RLMAL			RMMAL			RHEE			RMT1			RMT2			RMT5			
		X1	Y1	Z1	X2	Y2	Z2	X3	Y3	Z3	X4	Y4	Z4	X5	Y5	Z5	X6	Y6	Z6	X7	Y7	Z7	X8	Y8	Z8	X9	Y9	Z9	X10	Y10	Z10	X11	Y11	Z11	X12	Y12	Z12	X13	Y13	Z13	X14	Y14	Z14	X15	Y15	Z15	X16	Y16	Z16	X17	Y17	Z17	X18	Y18	Z18	X19	Y19	Z19	X20	Y20	Z20	X21	Y21	Z21	X22	Y22	Z22	X23	Y23	Z23	X24	Y24	Z24	X25	Y25	Z25	X26	Y26	Z26	X27	Y27	Z27	X28	Y28	Z28	X29	Y29	Z29	X30	Y30	Z30	X31	Y31	Z31	X32	Y32	Z32	X33	Y33	Z33	X34	Y34	Z34	X35	Y35	Z35	X36	Y36	Z36	X37	Y37	Z37	X38	Y38	Z38	X39	Y39	Z39	X40	Y40	Z40	X41	Y41	Z41	X42	Y42	Z42	X43	Y43	Z43	X44	Y44	Z44	X45	Y45	Z45	X46	Y46	Z46	X47	Y47	Z47	X48	Y48	Z48	X49	Y49	Z49	X50	Y50	Z50	X51	Y51	Z51	X52	Y52	Z52	X53	Y53	Z53	X54	Y54	Z54	X55	Y55	Z55	X56	Y56	Z56	X57	Y57	Z57	X58	Y58	Z58	X59	Y59	Z59	X60	Y60	Z60	X61	Y61	Z61	

813	4.06	34.92005157470704	1188.576538085938	-890.053649902344	-127.3789443969727	1094.8388671875	-965.236022949219	-83.96471405029298	1115.466918945313	-810.083435058594	-191.1043701171875	1028.599853515625	-916.014099121094	-416.0184631347657	810.7307128906252	-918.363952636719	-99.73942565917972	898.1242675781252	-909.189392089844	-82.83652496337892	948.8244628906252	-1059.748779296875	-173.9698944091797	851.0755615234377	-1243.255249023438	-183.841796875	805.1604614257815	-1227.020141601563	-209.2777404785157	802.9302978515627	-1281.328491210938	-266.7365722656251	740.4001464843751	-1305.978515625	-332.4426269531251	802.3179931640627	-1288.656127929688	-436.5403137207032	650.8569335937501	-1140.26318359375	-407.1483459472657	586.9516601562501	-1167.267456054688	-409.1639709472657	642.9746704101564	-1081.17138671875	-107.8206634521485	950.7843017578127	-756.3377075195314	-223.6994323730469	881.0315551757815	-586.1416625976564	-233.8082122802735	831.5457153320315	-589.9801025390626	-269.0471191406251	846.6964111328127	-543.1778564453126	-318.5968627929688	798.4956054687502	-515.0139770507814	-393.1422729492189	836.8310546875002	-537.9486694335939	-409.2522888183595	605.1264648437501	-662.3313598632814	-442.4220275878907	658.2122192382814	-706.0391845703126	-396.6526184082032	651.2373657226564	-756.3203125000001	-387.6907958984376	601.3480224609376	-1037.30322265625	-394.8047790527345	621.8978881835939	-795.0119628906252	-501.509735107422	728.3916015625001	-918.2094726562502	-527.5169677734376	707.8295898437501	-944.104431152344	-526.6568603515626	709.3126831054689	-888.2742309570315	-377.9826660156251	520.2983398437501	-1142.911499023438	-295.6481628417969	510.9008178710939	-1155.903686523438	-274.3794860839844	546.5176391601564	-1127.345336914063	-262.9616699218751	461.778533935547	-1167.583129882813	-184.7759399414063	405.9444274902345	-1168.45947265625	-139.6127166748047	395.794403076172	-1044.743774414063	-153.2803192138672	281.3375549316407	-1125.728637695313	-230.0767364501954	268.4265441894532	-1171.573486328125	-197.3828125000001	248.2930450439454	-1150.073852539063	-238.6388854980469	185.7573852539063	-1115.2421875	-376.2937622070313	92.2283172607422	-1122.585083007813	-334.3834533691407	99.17380523681643	-1041.330688476563	-430.8652954101564	50.13737106323244	-1068.380249023438	-217.4848175048829	52.98166275024415	-1087.404541015625	-226.7169494628907	58.3501319885254	-1135.638061523438	-273.2169799804688	41.62313461303712	-1180.989624023438	-420.2474365234376	535.7119140625001	-695.7114868164064	-355.6186523437501	544.4683227539064	-691.3866577148439	-344.6044921875001	571.1320190429689	-712.5693969726564	-299.0349731445313	485.3919677734376	-674.8787231445314	-182.9479370117188	406.5176391601564	-682.3488769531251	-145.0506286621094	400.9996337890626	-800.1610107421877	-171.1192779541016	267.3226928710938	-747.9929809570314	-258.7023620605469	222.7740020751954	-696.8543701171876	-227.3576202392579	204.4485473632813	-726.9257202148439	-254.0194091796876	170.3203430175782	-769.2674560546877	-374.0319519042969	91.31044769287111	-739.5177612304689	-329.8623657226563	104.6404266357422	-818.502624511719	-425.4602661132814	51.33740234375001	-799.164733886719	-216.5929260253907	57.52451705932619	-761.5711059570314	-226.5272216796876	58.07322692871095	-720.6084594726564	-270.3715820312501	36.17021942138673	-675.0258178710939	
814	4.065	34.89241027832032	1188.569091796875	-890.097106933594	-127.3729400634766	1094.957641601563	-965.2951660156252	-83.93196105957033	1115.486694335938	-810.0947265625002	-191.0531768798828	1028.638671875	-915.9984130859377	-416.0010070800782	810.780700683594	-918.3235473632815	-99.7366638183594	898.212341308594	-909.2768554687502	-82.7897415161133	948.7989501953127	-1059.793823242188	-173.9921264648438	851.099060058594	-1243.302734375	-183.0316314697266	805.026062011719	-1226.799194335938	-209.2366638183594	802.9683227539065	-1281.355224609375	-266.7099304199219	740.3795776367189	-1305.917846679688	-332.4589538574219	802.3318481445315	-1288.594482421875	-436.4093322753907	650.8740844726564	-1140.240112304688	-407.1661071777345	587.0037231445314	-1167.27001953125	-409.1084594726564	642.9979248046876	-1081.176147460938	-107.811149597168	950.7541503906252	-756.3228759765626	-223.645492553711	881.0292968750002	-586.1453857421876	-233.7077636718751	831.5422973632815	-589.9547119140626	-268.9909667968751	846.6986083984377	-543.1813354492189	-318.5370178222657	798.4893188476565	-515.0238647460939	-393.0682373046876	836.804870605469	-538.0287475585939	-409.2048645019532	605.1577148437501	-662.3244628906251	-442.4076232910157	658.2108154296876	-706.0498657226564	-396.6166381835939	651.2375488281251	-756.3399658203126	-387.717010498047	601.2171630859376	-1037.259765625	-394.8020935058595	621.8905029296876	-795.0117797851565	-501.4670410156251	728.3669433593751	-918.2128906250002	-527.5020751953126	707.8420410156251	-944.1309204101565	-526.6155395507814	709.3279418945314	-888.276550292969	-377.9367370605469	520.2885131835939	-1142.918090820313	-295.6700439453126	510.8692016601564	-1155.862060546875	-274.4028930664063	546.5467529296876	-1127.38330078125	-262.9919433593751	461.8006591796876	-1167.651000976563	-184.7750091552735	405.8914184570314	-1168.500366210938	-139.6160888671875	395.7935791015626	-1044.746948242188	-153.1701812744141	281.3130493164063	-1125.689086914063	-230.1533813476563	268.4667968750001	-1171.561645507813	-197.4252929687501	248.2448730468751	-1150.060791015625	-238.5962524414063	185.7821350097657	-1115.228271484375	-376.2035522460938	92.19612121582033	-1122.579956054688	-334.4127502441407	99.1801681518555	-1041.316772460938	-430.8821411132814	50.13418197631837	-1068.345336914063	-217.4779510498047	53.03997039794923	-1087.404541015625	-226.6923828125001	58.38355636596681	-1135.630615234375	-273.2429199218751	41.59784698486329	-1181.025268554688	-420.2496643066407	535.6950073242189	-695.7085571289064	-355.5519104003907	544.4935913085939	-691.4198608398439	-344.5474243164063	571.1271972656251	-712.5933837890626	-298.9807739257813	485.4570922851564	-674.8756103515626	-182.946533203125	406.4683837890626	-682.3549194335939	-145.0176239013672	400.9680786132814	-800.1334228515627	-171.5870208740235	267.3074951171876	-748.3481445312501	-258.6584777832032	222.8166656494141	-696.7980346679689	-227.4901580810547	204.7036437988282	-727.0801391601564	-253.9690093994141	170.332748413086	-769.3088378906252	-374.0345764160157	91.32201385498048	-739.5202026367189	-329.8240051269532	104.7050399780274	-818.5808105468752	-425.388641357422	51.40502548217775	-799.2110595703127	-216.6107177734376	57.55475234985353	-761.5309448242189	-226.5683135986329	58.009822845459	-720.6553344726564	-270.3592834472657	36.19076156616212	-675.0233154296876	
815	4.07	34.92113876342774	1188.539306640625	-890.1436157226565	-127.4232254028321	1094.844970703125	-965.2359619140627	-83.86889648437501	1115.46044921875	-810.1577758789065	-191.0526275634766	1028.641235351563	-916.008728027344	-415.9816284179689	810.8001098632815	-918.3421020507815	-99.6846618652344	898.1939086914065	-909.3113403320315	-82.73790740966798	948.8925781250002	-1059.846557617188	-173.9700317382813	851.0611572265627	-1243.28173828125	-183.0608367919922	805.080993652344	-1226.774536132813	-209.3288116455079	802.9140625000002	-1281.347900390625	-266.7638244628907	740.4491577148439	-1305.975830078125	-332.6522521972657	802.5405883789065	-1288.6923828125	-436.4405517578126	650.8372802734376	-1140.27294921875	-407.0689392089845	587.0068359375001	-1167.258911132813	-409.140594482422	642.9801025390626	-1081.222412109375	-107.7314453125	950.7868652343752	-756.3507080078126	-223.6018066406251	881.0207519531252	-586.1339721679689	-233.6430816650391	831.5527954101565	-589.9865722656251	-268.9909973144532	846.697692871094	-543.1918945312501	-318.4390563964844	798.486755371094	-515.0490722656251	-392.9508361816407	836.8438110351565	-537.8847656250001	-409.1721801757814	605.1495361328126	-662.3247680664064	-442.3020629882814	658.2008056640626	-706.0247802734376	-396.5751037597657	651.2260742187501	-756.3580322265626	-387.6277160644532	601.3803100585939	-1037.322631835938	-394.7559814453126	621.8869018554689	-795.1083984375002	-501.4363098144532	728.4177856445314	-918.220886230469	-527.4708862304689	707.8754272460939	-944.1381835937502	-526.6289672851564	709.3229980468751	-888.2751464843752	-377.8440856933594	520.2624511718751	-1142.895751953125	-295.6965332031251	510.8989868164064	-1155.932373046875	-274.3219299316407	546.5447998046876	-1127.385009765625	-262.9227600097657	461.834686279297	-1167.624389648438	-184.7616577148438	405.8443298339845	-1168.488403320313	-139.533935546875	395.8128967285157	-1044.718017578125	-153.2013397216797	281.3320312500001	-1125.724487304688	-230.1293945312501	268.4555664062501	-1171.613647460938	-197.4064178466797	248.2186584472657	-1150.075317382813	-238.5591278076172	185.7528991699219	-1115.205932617188	-376.2716979980469	92.20955657958986	-1122.596435546875	-334.4078674316407	99.18452453613284	-1041.319213867188	-430.8601074218751	50.14928817749025	-1068.3779296875	-217.4119720458985	53.00032424926759	-1087.384765625	-226.6869659423829	58.2071876525879	-1135.396606445313	-273.0343933105469	41.78334045410157	-1181.348999023438	-420.1739196777345	535.6914062500001	-695.7456054687501	-355.5199584960938	544.4561157226564	-691.4440307617189	-344.5058593750001	571.0948486328126	-712.5961914062501	-298.9624023437501	485.4112854003907	-674.8914184570314	-182.9478302001953	406.4691467285157	-682.3300170898439	-145.0108489990235	401.0162963867189	-800.222106933594	-171.2749786376953	267.1972045898438	-748.1131591796876	-258.6221618652344	222.7756347656251	-696.8432617187501	-227.4205780029297	204.4955749511719	-727.0185546875001	-253.9505157470704	170.3511505126953	-769.3079833984377	-374.0214843750001	91.34474945068361	-739.5109252929689	-329.8210449218751	104.7179946899414	-818.6231079101565	-425.3771057128907	51.39020156860353	-799.2473144531252	-216.627670288086	57.53190231323244	-761.5637207031251	-226.5586395263672	58.01245117187501	-720.6740112304689	-270.3876953125001	36.18161010742188	-675.0541381835939	
816	4.075	34.97782897949219	1188.587036132813	-890.1307373046877	-127.4256973266602	1094.897827148438	-965.2554931640627	-83.85578918457033	1115.4453125	-810.1718750000002	-191.0374603271485	1028.628662109375	-916.0037231445315	-415.9394531250001	810.778991699219	-918.345642089844	-99.62085723876956	898.2092895507815	-909.2944946289065	-82.76696777343751	948.9754638671877	-1059.85009765625	-173.9422454833985	851.0761718750002	-1243.256958007813	-183.0611419677735	805.0942993164065	-1226.757934570313	-209.3111114501954	802.9639282226565	-1281.338012695313	-266.8042602539063	740.5119018554689	-1306.004638671875	-332.4308166503907	802.324401855469	-1288.62451171875	-436.4239196777345	650.9036254882814	-1140.265625	-407.0979003906251	587.0105590820314	-1167.254516601563	-409.0933532714845	643.0189208984376	-1081.1708984375	-107.6554794311524	950.7791748046877	-756.3523559570314	-223.5356597900391	880.9624633789065	-586.1768188476564	-233.570785522461	831.5400390625002	-589.9694213867189	-268.9160461425782	846.6549072265627	-543.2243652343751	-318.4083862304688	798.4431152343752	-515.0651245117189	-392.8919677734376	836.7965087890627	-537.9074096679689	-409.1413879394532	605.1679687500001	-662.3460083007814	-442.2493896484376	658.2852783203126	-706.0913696289064	-396.5573730468751	651.2161865234376	-756.3378906250001	-387.7191162109376	601.1183471679689	-1037.25244140625	-394.7586669921876	621.8942871093751	-795.108581542969	-501.3636474609376	728.4058227539064	-918.2475585937502	-527.4400634765626	707.8397827148439	-944.1195068359377	-526.5692749023439	709.3342895507814	-888.2815551757815	-377.9161376953126	520.3004760742189	-1142.978271484375	-295.6191711425782	510.8448791503907	-1155.898071289063	-274.4172058105469	546.5750732421876	-1127.477416992188	-262.7506408691407	461.7367553710939	-1167.606811523438	-184.7033386230469	405.840301513672	-1168.486328125	-139.5391845703125	395.8131713867189	-1044.7236328125	-153.2463684082032	281.3234252929688	-1125.767578125	-229.1546173095704	268.1233215332032	-1171.232666015625	-197.3659973144532	248.2327270507813	-1150.076049804688	-238.6113281250001	185.7992706298828	-1115.276733398438	-376.2277526855469	92.17437744140626	-1122.594848632813	-334.3825073242188	99.16511535644534	-1041.334838867188	-430.8841247558595	50.13826751708986	-1068.351928710938	-217.4680328369141	53.01317214965822	-1087.394165039063	-226.7625274658204	58.25395584106447	-1135.45654296875	-273.0490417480469	41.79721832275391	-1181.288696289063	-420.2083435058595	535.7398071289064	-695.8550415039064	-355.5227355957032	544.4145507812501	-691.4187622070314	-344.5359191894532	571.1730957031251	-712.6461791992189	-298.9074096679688	485.430633544922	-674.8257446289064	-182.9226837158203	406.4431457519532	-682.3381347656251	-144.9456176757813	401.0130920410157	-800.2585449218752	-171.5753326416016	267.2958068847657	-748.3531494140626	-258.6207885742188	222.7916107177735	-696.7999877929689	-227.484115600586	204.6347808837891	-727.0499877929689	-253.9546356201172	170.3744354248047	-769.3217773437502	-374.0292968750001	91.32771301269533	-739.5343017578126	-329.8216552734376	104.6631317138672	-818.5891113281252	-425.4429931640626	51.41026687622072	-799.2288208007815	-216.5669708251954	57.52514648437501	-761.5642700195314	-226.5684509277344	58.00668334960939	-720.6769409179689	-270.3540954589844	36.19633102416993	-675.0108032226564	
